<svg width="82" height="95" viewBox="0 0 82 95" fill="#33ff33" xmlns="http://www.w3.org/2000/svg">
  <defs>
    <clipPath id="clip-a">
      <path d="m4.573.049 53.803 4.574-4.573 53.807L0 53.858z" />
    </clipPath>
    <clipPath id="clip-b">
      <path d="m66.868 101.071-50.63-21.579 21.988-51.59 50.63 21.578z" />
    </clipPath>
  </defs>
  <g clip-path="url(#clip-a)">
    <path d="M9.642 11.206q5.161 4.462 10.312 8.923l-9.86-9.991q-.391.389-.767.795.162.137.315.272 M15.964 5.898q3.917 5.467 7.833 10.928L16.831 5.298a28 28 0 0 0-.938.507q.029.042.07.093 M18.8 21.356c-3.527-3.047-7.048-6.093-10.574-9.141q-.346.423-.67.861l.336.251z M11.654 9.31q4.75 4.813 9.505 9.625L12.172 8.274c-.283.234-.568.463-.846.709z M4.677 40.388q.163.37.343.731a6021 6021 0 0 1 9.533-2.23c-3.293.502-6.586.998-9.876 1.499 M3.706 37.986q.14.399.294.79l10.231-1.553z M17.747 22.691Q12.17 18.58 6.584 14.472q-.294.455-.572.921l.419.261z M29.951 14.096 27.204 2.311q-.459.04-.964.103z M31.587 13.642 29.858 2.245a27 27 0 0 0-.932 0z M18.402 4.633l6.889 11.403q-2.986-5.95-5.962-11.893-.49.198-.971.419z M5.844 42.667c.126.212.251.431.375.643 2.894-.921 5.784-1.836 8.678-2.759q-4.527 1.053-9.053 2.115 M44.1 6.693l-.544-.343c-.638 2.577-1.275 5.161-1.907 7.74z M28.344 14.586c-1.266-3.974-2.53-7.941-3.788-11.915q-.498.085-.987.186 2.386 5.869 4.775 11.729 M26.729 15.126 21.901 3.249q-.533.141-.982.289c1.94 3.865 3.876 7.723 5.81 11.588 M7.179 44.771q.194.287.409.567l7.815-3.183z M25.667 55.972q.073.007.152.022.352-.844.703-1.679-.427.823-.855 1.656 M23.732 55.645c.06.017.126.028.186.043q.53-1.031 1.062-2.054z M46.019 8.055q-.233-.18-.467-.353l-2.284 6.883q1.372-3.26 2.752-6.53 M29.46 56.212h.056l.163-.659c-.071.223-.148.441-.219.659 M21.742 55.172l.246.064q.809-1.298 1.619-2.605c-.621.844-1.242 1.695-1.864 2.54 M27.586 56.157c.038 0 .07.006.103.006q.195-.586.387-1.172z M12.003 50.118c.135.12.278.229.419.343q2.651-1.898 5.298-3.8z M13.85 51.519c.131.087.261.18.392.267 1.455-1.227 2.905-2.447 4.355-3.674-1.581 1.134-3.16 2.274-4.747 3.407 M8.665 46.727q.205.246.416.491l6.96-3.494q-3.687 1.499-7.374 3.003 M15.774 52.718q.181.098.37.195l3.576-3.525c-1.319 1.105-2.633 2.219-3.946 3.329 M17.742 53.715l.343.148c.959-1.112 1.924-2.224 2.883-3.336q-1.61 1.595-3.226 3.188 M19.741 54.527l.289.103q1.08-1.465 2.159-2.937a608 608 0 0 1-2.447 2.834 M4.944 17.982q6.028 3.116 12.063 6.24c-3.935-2.447-7.877-4.893-11.812-7.341q-.246.488-.474.987z M34.949 13.376l.066-10.497q-.405-.084-.84-.165.391 5.33.774 10.66 M3.843 20.484l12.318 5.199q-6.047-3.133-12.089-6.257c-.126.332-.251.664-.366 1.003.043.021.093.038.137.054 M2.96 35.473q.106.435.229.861l10.94-.795z M50.718 12.924q-.123-.163-.251-.328-1.34 2.159-2.687 4.323c.981-1.33 1.962-2.665 2.939-3.995 M51.945 14.7c-.066-.103-.137-.201-.202-.306q-1.316 1.794-2.637 3.586z M39.974 13.811l2.061-8.333-.632-.338q-.71 4.34-1.429 8.671 M36.639 13.239c.278-3.232.55-6.469.829-9.707q-.378-.123-.763-.24z M10.27 48.52q.207.212.424.414l6.121-3.7q-3.269 1.644-6.547 3.286 M13.751 7.517l8.634 10.246c-2.648-3.7-5.302-7.395-7.953-11.097q-.431.276-.833.546l-.066.049c.077.088.148.169.218.257 M47.774 9.587c-.13-.131-.267-.251-.403-.377q-1.316 3.117-2.622 6.226q1.514-2.92 3.025-5.849 M33.254 13.348l-.784-10.9c-.191-.028-.388-.049-.579-.07l-.304-.033z M31.319 55.934q-.024.107-.049.207h.017z M38.329 13.398q.744-4.497 1.482-8.994c-.081-.038-.163-.07-.255-.109l-.437-.169q-.391 4.637-.79 9.272 M55.945 25.651q.001-.028-.006-.056l-.589.296q.301-.117.594-.24 M54.533 24.407l1.123-.567c-.006-.032-.017-.066-.022-.103z M15.523 27.253A11859 11859 0 0 0 3.205 22.06q-.145.505-.268 1.019l.077.022z M2.464 25.771l12.476 3.074q-6.176-2.046-12.352-4.1-.091.508-.158 1.014z M56.12 27.427v-.015l-.223.087q.112-.032.223-.07 M2.436 32.856q.064.46.153.921 5.771.036 11.544.07z M49.333 11.212q-.153-.18-.315-.36l-2.699 5.205c1.009-1.612 2.012-3.232 3.014-4.845 M54.653 20.167a3 3 0 0 1-.07-.195l-1.969 1.656c.681-.486 1.358-.977 2.039-1.461 M53.001 16.504a4 4 0 0 0-.152-.272l-2.502 2.894q1.333-1.312 2.654-2.622 M53.907 18.32q-.049-.116-.103-.229l-2.198 2.17z M55.225 22.014q-.015-.077-.038-.152c-.512.371-1.019.735-1.532 1.101z M14.253 32.159l-12.056-1.99q.015.481.047.966c4.002.343 8.008.681 12.008 1.024 M2.191 28.458l12.417 2.043-12.357-3.052c-.028.338-.043.67-.06 1.009" />
  </g>
  <g clip-path="url(#clip-b)">
    <path d="M65.489 88.485l-7.228-12.073q3.222 6.484 6.442 12.977a23 23 0 0 0 1.009-.533z M57.58 91.652l-4.154-13.246q1.553 6.781 3.107 13.55c.37-.054.73-.12 1.084-.184-.011-.045-.028-.084-.038-.12 M59.793 75.578q3.707 6.188 7.412 12.384.477-.307.938-.632a14 14 0 0 0-.251-.354z M62.911 89.7l-6.213-12.509 5.368 13.353q.533-.197 1.058-.419z M79.792 61.472q-.047-.413-.105-.823-5.036-.452-10.072-.893z M79.96 64.143q-.01-.433-.028-.872-5.273-.885-10.535-1.778z M61.253 74.608l8.291 11.665q.438-.353.861-.721l-.327-.387q-4.418-5.279-8.826-10.557 M46.51 79.1l-1.112 12.438q.466.113.981.212z M44.76 79.012c-.66 3.914-1.326 7.821-1.984 11.735q.452.158.911.306c.359-4.017.713-8.029 1.074-12.04 M54.784 92.11 51.71 78.701q.999 6.795 2.005 13.589c.36-.028.726-.06 1.084-.098z M79.377 58.861a18 18 0 0 0-.163-.753c-3.13-.032-6.264-.059-9.398-.092q4.78.426 9.561.846 M30.246 81.791q.204.253.424.507l4.367-6.971q-2.397 3.227-4.792 6.465 M48.248 79.137l-.137 12.907q.518.073 1.026.135c-.294-4.349-.594-8.699-.889-13.042 M49.998 79.126c.3 4.404.606 8.809.904 13.213q.564.029 1.052.028z M78.751 56.365q-.106-.346-.219-.682-4.347.293-8.693.594z M64.235 39.413q-.074-.032-.141-.066-.62.705-1.238 1.418.685-.677 1.379-1.352 M66.028 40.356l-.167-.098q-.857.832-1.707 1.673.932-.793 1.874-1.577 M28.807 79.828q.165.257.338.502c1.487-2.005 2.976-4.005 4.464-6.011z M60.589 37.953l-.056-.017q-.18.293-.37.587z M67.821 41.468l-.218-.148c-.812.677-1.619 1.352-2.431 2.033z M62.41 38.612c-.033-.011-.066-.028-.098-.038q-.38.508-.759 1.024z M75.747 49.567q-.148-.237-.306-.474l-6.42 2.018z M74.385 47.595q-.147-.198-.3-.388-2.733 1.097-5.456 2.196z M77.922 53.972q-.121-.311-.251-.622-3.975.597-7.953 1.183 4.1-.286 8.205-.561 M72.885 45.801q-.149-.162-.299-.315l-4.647 2.305c1.647-.66 3.299-1.326 4.944-1.99 M71.272 44.188l-.283-.262q-1.953 1.178-3.907 2.344 2.099-1.041 4.19-2.082 M69.576 42.744q-.12-.098-.251-.195-1.531 1.093-3.063 2.18c1.102-.66 2.207-1.326 3.314-1.984 M72.292 83.361l-9.818-10.013 9.212 11.011q.4-.398.786-.812a6 6 0 0 1-.181-.186 M41.375 78.188q-1.727 5.132-3.455 10.274.368.212.767.431 1.349-5.357 2.687-10.705 M74.177 81.262l-10.4-9.075c3.276 3.347 6.558 6.693 9.833 10.041q.349-.424.681-.867z M79.884 66.851q.033-.463.049-.921l-10.981-2.753q5.466 1.832 10.933 3.674 M25.765 73.539q.067.205.137.405 2.015-1.686 4.033-3.37-2.085 1.479-4.169 2.965 M25.139 71.403c.028.12.066.24.098.366l3.745-2.665q-1.921 1.144-3.843 2.3 M36.585 76.139l-4.704 7.507q.244.269.507.533 2.103-4.024 4.197-8.04 M39.675 77.774q-1.979 4.627-3.947 9.255.328.243.67.48c1.091-3.243 2.181-6.493 3.278-9.735 M76.924 51.693a10 10 0 0 0-.279-.544l-7.2 1.651z M60.272 90.78l-5.161-12.837 4.219 13.452q.512-.13.991-.267a.4.4 0 0 1 .084-.028z M27.575 77.763c.087.17.18.333.272.502q2.295-2.633 4.584-5.266-2.428 2.386-4.856 4.764 M43.027 78.767l-2.747 10.94q.271.131.544.255l.285.13q.963-5.667 1.919-11.326 M58.674 37.626c.039-.066.084-.126.121-.191h-.017q-.056.091-.103.191 M38.067 77.076l-4.36 8.34c.077.066.142.126.219.186l.375.31z M24.745 59.372q-.001.025-.01.056l.675-.103z M25.732 61.047c-.424.066-.855.131-1.281.191l-.015.109q.652-.145 1.298-.3 M64.906 70.852l10.405 9.075q.301-.449.589-.915l-.066-.049z M77.235 76.527q-5.625-3.523-11.24-7.048 5.389 4.003 10.786 8.007c.169-.31.328-.627.486-.938q-.017-.014-.032-.021 M25.154 57.575l-.006.015.246-.015z M79.552 69.587q.082-.474.147-.959l-11.298-3.795q5.576 2.373 11.152 4.754 M26.572 75.666c.066.152.126.304.195.458q2.159-2.118 4.323-4.235z M24.25 65.167q-.001.105.006.218 1.229-.5 2.459-.991c-.823.255-1.641.512-2.464.773 M24.681 69.293l.059.317 3.391-2.033z M24.381 67.222l.028.255c.947-.474 1.9-.942 2.855-1.416q-1.446.579-2.883 1.161 M24.276 63.172l-.004.159c.614-.195 1.236-.393 1.853-.583z M67.734 66.453l11.185 5.844q.14-.483.261-.966z M78.368 73.981l-11.517-6.018 11.135 6.982q.204-.481.382-.964" />
  </g>
</svg>
