<svg xmlns="http://www.w3.org/2000/svg" viewBox="380 120 530 530">
  <path
    fill="#33ff33"
    d="M886.207 451.287c-16.494 56.754-48.807 101.82-96.485 135.891-29.223 20.883-61.655 34.34-96.866 41.283a239 239 0 0 1-72.364 3.122c-54.243-5.922-101.961-27.033-142.547-63.946-26.637-24.226-47.1-52.837-61.405-85.715-10.45-24.018-16.585-49.215-19.024-75.45-4.86-52.284 5.971-101.059 31.483-146.649 12.003-21.45 27.22-40.557 45.212-57.374.88-.822 2.225-1.62 3.36-1.626 16.14-.106 32.28-.072 48.95-.072v174.442c3.773-3.251 6.62-5.564 9.31-8.047 16.357-15.092 32.639-30.266 49.02-45.33 23-21.152 46.043-42.257 69.11-63.334 11.405-10.42 22.527-21.196 34.453-30.988 18.294-15.02 39.373-24.215 63.205-25.391 20.73-1.023 41.515-.985 62.277-1.295 1.294-.02 2.907.69 3.863 1.598 25.664 24.368 45.378 52.81 58.959 85.56a248.5 248.5 0 0 1 15.274 52.482c4.478 25.55 5.216 51.235 1.311 76.893-1.716 11.279-4.618 22.377-7.096 33.946M492.223 528.07V230.275q-.593-.27-1.184-.543c-3.119 3.72-6.238 7.44-9.964 11.408-1.688 2.044-3.394 4.075-5.062 6.135-29.4 36.308-44.619 78.135-47.738 124.45-1.073 15.921.172 31.852 2.85 47.643 6.241 36.818 21.038 69.828 44.097 99.121 4.943 6.28 10.534 12.048 15.827 18.052l1.271-.75c-.102-2.27-.205-4.54-.097-7.722m144.533-150.358c19.87 26.823 39.276 54.005 59.757 80.353 15.79 20.315 32.746 39.738 52.191 56.805 12.461 10.937 25.742 20.46 41.357 26.474 3.137 1.208 5.24.916 7.397-1.652 9.056-10.787 18.955-20.952 27.2-32.321 24.235-33.42 36.423-71.36 39.016-112.305 1.424-22.481-1.11-44.757-6.882-66.628-11.16-42.288-32.96-78.058-65.497-107.237-1.597-1.432-4.395-2.028-6.658-2.09-2.935-.08-5.929.615-8.84 1.243-26.577 5.729-49.934 18.12-70.357 35.705-25.305 21.79-50.008 44.278-74.956 66.48-6.27 5.58-12.485 11.222-18.8 16.901 8.488 12.954 16.584 25.31 25.072 38.272m-56.172 213.242c61.016 18.32 119.16 11.43 176.102-19.884-2.477-.735-3.5-1.073-4.542-1.343-15.268-3.967-29.18-10.733-42.3-19.492-19.76-13.192-35.235-30.772-50.51-48.522-25.953-30.155-48.546-62.811-70.416-95.984-6.577-9.976-13.308-19.85-20.037-29.874-13.559 12.194-26.823 24.016-39.897 36.046-1.351 1.243-2.174 3.707-2.21 5.625-.207 10.993-.103 21.991-.102 32.988.002 36.822-.031 73.645.105 110.466.007 2.007.834 4.92 2.287 5.872 15.776 10.329 32.753 18.212 51.52 24.102"
  />
  <path
    fill="#33ff33"
    d="M538.004 161.835c2.52-9.72 5.271-18.97 7.286-28.38 1.03-4.808 3.288-6.272 7.81-5.576 1.772.273 3.621.045 6.046.045l-7.46 27.729h27.338l-10.507 44.416h21.58l-22.38 46.309-1.77-.557 7.934-34.823h-23.594l12.394-37.742h-27.474c1.024-4.142 1.874-7.58 2.797-11.421m71.029 31.129c.228-.192.363-.435.622-1.227 2.104-6.393 3.993-12.29 6.087-18.827h-27.639c3.08-11.514 6.087-22.485 8.94-33.497 3.066-11.836 3.002-11.852 14.849-11.378l-7.04 27.538h27.137L621.58 200.19c6.23 0 11.87.006 17.51-.003 1.717-.003 3.597-.23 2.48 3.164-1.254 2.654-2.167 4.672-3.081 6.69 0 0-.301.23-.543.644a14711 14711 0 0 0-17.365 35.841l-1.517-.643 4.814-22.811c.071-.206.143-.41.386-1.218 1.023-3.89 1.874-7.18 2.82-10.838h-23.058s-.026-.06-.148-.43c1.637-6.12 3.396-11.871 5.155-17.622"
  />
</svg>
