<svg xmlns="http://www.w3.org/2000/svg" viewBox="0 0 1008 1024" fill="#33ff33">
  <path
    fill="#33ff33"
    d="M45.21 910.416c12.293-43.12 23.513-86.107 34.874-129.057 6.468-24.456 13.666-48.719 20.105-73.181 5.254-19.958 10.643-39.87 16.422-59.68 1.068-3.663 2.564-5.039 6.517-4.927 10.657.3 21.33.082 31.996.096 1.963.002 3.979-.262 6.577.93-25.897 95.053-51.228 190.213-76.326 286.008 6.34.324 11.638.99 16.905.797 21.641-.793 43.32 1.474 64.93-.723 27.502-2.797 53.583-9.212 73.601-30.25 13.305-13.983 22.217-30.75 29.718-48.262 13.467-31.443 23.373-64.102 32.306-97.072.478-1.764 1.136-3.48 1.712-5.217.753-2.27 1.949-4.008 4.708-3.214 2.76.793 2.111 3.075 1.805 4.977-1.614 10.015-3.323 20.016-4.986 30.023-4.229 25.433-7.924 50.937-10.784 76.568-2.343 20.995-5.177 41.934-7.68 62.912-.65 5.447-1.206 10.946-1.191 16.42.01 4.296-1.294 5.783-5.748 5.765-47.665-.183-95.33-.19-142.995-.216-31.165-.018-62.33.026-93.496-.01-2.253-.003-4.663.628-7.19-1.21 2.674-10.278 5.382-20.684 8.22-31.477m13.35-628.78c2.187-16.424 4.421-32.392 6.439-48.387 2.329-18.47 4.472-36.964 6.684-55.449.573-4.788 1.312-9.57 1.579-14.377.22-3.976 2.145-4.857 5.776-4.821 17.99.178 35.977.752 53.961.896 52.314.417 104.632.325 156.949.437 7.202.016 7.24.073 5.328 6.94-15 53.852-30.005 107.702-45.001 161.555-8.346 29.968-16.758 59.919-24.933 89.934-1.308 4.8-3.512 6.984-8.653 6.784-11.648-.454-23.31-.498-34.967-.744-.956-.02-1.907-.307-3.965-.658 22.737-83.875 45.2-167.443 67.177-252.326-6.662 0-12.562-.269-18.43.05-19.938 1.08-39.857 2.188-59.611 5.575-34.366 5.892-58.357 25.65-74.35 55.613-14.758 27.647-22.583 57.911-31.182 87.825-1.516 5.274-2.65 10.658-4.189 15.925-.654 2.24-.961 5.63-4.445 4.887-3.286-.7-2.02-3.855-1.752-5.897 1.926-14.667 4.044-29.308 6.115-43.956.442-3.125.947-6.242 1.47-9.806m630.626 626.158c-17.779-20.664-26.161-45.046-30.375-71.04-5.007-30.883-4.105-62.087-4.097-93.224.007-30.829.002-61.658.017-92.487.004-7.11.264-7.364 7.254-7.375q13.998-.021 27.996.01c6.924.015 7.256.285 7.265 7.421.049 41.661-.148 83.323.149 124.982.19 26.815 1.7 53.575 7.9 79.814 5.571 23.58 14.53 45.418 33.52 61.689 13.698 11.736 29.785 18.22 47.63 19.927 28.975 2.769 55.611-3.627 79.047-21.473 20.68-15.747 31.11-37.622 37.266-62.13 6.127-24.393 5.012-49.262 5.113-74.038.168-41.66.072-83.32.134-124.98.004-2.649.191-5.34.7-7.932.568-2.894 2.624-4.895 5.581-4.789 2.888.104 4.913 2.055 5.475 5.003.34 1.782.401 3.64.4 5.463-.032 48.159.012 96.318-.182 144.476-.098 24.353-1.543 48.64-8.793 72.093-7.522 24.336-20.452 45.178-41.725 59.98-16.758 11.66-35.64 17.82-55.797 20.1-20.701 2.341-41.184.92-61.513-3.773-24.982-5.768-46.262-17.523-62.965-37.717M653.733 357c-.007-37.487.046-74.474-.061-111.461-.03-10.498-1.27-20.904-3.121-31.26-4.526-25.329-20.498-39.404-44.449-45.798-3.06-.818-6.124-1.614-8.91-3.178-1.023-.575-2.081-1.276-2.008-2.628.09-1.655 1.465-2.155 2.77-2.41 1.458-.284 2.97-.404 4.459-.405 49.316-.027 98.632-.053 147.948.018 2.779.004 7.062-.986 7.478 2.9.382 3.572-3.943 3.374-6.462 4.058-6.762 1.837-13.347 4.03-19.758 6.923-15.59 7.037-24.77 19.307-29.067 35.405-2.445 9.156-4 18.537-4.268 28.07-1.684 59.798-.684 119.609-.957 179.413-.04 8.51-.005 8.454-8.579 8.4-9.33-.06-18.66.023-27.99-.009-5.82-.02-7.007-1.117-7.024-7.06-.057-20.159-.009-40.319 0-60.978m268.588-125.761c-4.296 61.356-1.026 122.338-2.037 183.274-.033 1.999.077 4.008-.09 5.995-.3 3.584-2.658 5.475-5.955 5.563-3.543.094-6.019-1.784-6.386-5.62-.143-1.49-.134-2.996-.143-4.495-.295-49.821-.54-99.642-.899-149.463-.132-18.325-.828-36.634-5.233-54.543-4.08-16.592-13.402-28.48-29.96-34.701-15.81-5.941-32.283-7.78-48.775-9.942-3.125-.41-6.231-1.022-9.31-1.705-1.534-.34-2.845-1.27-2.616-3.12.194-1.575 1.568-2.117 2.89-2.35 1.465-.256 2.978-.326 4.47-.325q74.74.02 149.482.08c2.993.002 6.001-.139 8.931.753 1.576.48 2.77 1.305 2.726 3.082-.039 1.591-1.294 2.243-2.614 2.637-2.071.618-4.147 1.258-6.26 1.699-26.286 5.474-41.886 21.2-46.039 47.919-.766 4.928-1.445 9.87-2.182 15.262M748.573 45.835c13.648 2.477 22.571 9.99 25.858 23.03 3.1 12.299-.477 22.936-9.994 31.532-8.873 8.014-23.07 9.468-34.525 3.354-10.47-5.588-17.483-18.794-15.9-29.943 2.668-18.783 14.534-28.53 34.56-27.973m82.688 4.215c19.631-9.426 39.71-1.726 45.09 17.287 3.502 12.369.869 23.556-8.858 32.268-9.566 8.57-20.885 10.16-32.572 5.328-12.074-4.991-18.238-15.054-18.872-27.705-.58-11.598 4.788-20.827 15.212-27.178M316.04 561.015c.298-19.292 1.09-38.085.056-56.883-.108-1.974.405-3.975.437-5.966.065-4.17 2.468-6.046 6.267-6.306 8.026-.549 15.971-.074 23.704 2.412 10.976 3.527 16.827 11.32 17.312 22.547.47 10.875-3.779 19.82-13.596 25.472-2.844 1.637-5.89 2.863-9.698 3.579 4.713 6.613 9.055 12.64 13.325 18.717 4.21 5.992 8.37 12.02 12.5 18.069 1.014 1.483 2.38 3.126 1.09 4.984-1.16 1.669-3.164 1.606-5.019 1.597-4.061-.019-6.233-2.798-8.217-5.735-7.27-10.763-14.49-21.56-21.727-32.344-1.253-1.868-2.14-4.303-5.299-3.44 0 10.247.032 20.36-.026 30.472-.012 2.148-.231 4.315-.574 6.438-.547 3.393-2.8 4.744-6.082 4.537-3.214-.203-4.238-2.513-4.298-5.17-.17-7.491-.124-14.988-.156-22.98m19.14-24.223c3.815.011 7.1-1.615 10.208-3.545 6.355-3.95 8.944-10.742 7.297-18.644-1.132-5.428-7.189-10.368-13.89-11.154-2.298-.27-4.65-.074-6.958-.29-3.54-.33-4.633 1.28-4.558 4.66.165 7.465.045 14.935.047 22.403.001 6.705.005 6.705 7.853 6.57m144.407 42.878c12.074-27.305 24.07-54.228 35.072-81.581 1.114-2.77 1.387-7.118 5.304-6.892 3.68.212 3.9 4.464 5.09 7.299q10.82 25.783 21.608 51.58c4.43 10.597 8.875 21.187 13.205 31.825.87 2.138 2.936 4.751-.346 6.549-2.953 1.617-5.876.822-8.239-1.474-2.062-2.004-3.312-4.565-4.32-7.24-1.763-4.675-3.579-9.33-5.31-14.016-1.169-3.168-3.048-4.579-6.729-4.476-10.49.295-20.994.23-31.49.072-3.125-.047-4.845.96-6.04 3.885-2.708 6.625-5.69 13.139-8.654 19.655-.897 1.973-2.015 3.936-4.493 4.295-2.182.315-4.644.53-6.092-1.307-2.233-2.83.441-5.264 1.434-8.174m33.005-28.133h22.73l-15.659-37.562-15.788 37.146c3.317.15 5.623.254 8.717.416m-367.994-41.963c-19.583 17.475-19.325 45.75.28 61.816 12.053 9.878 31.862 10.261 45.348 1.058 2.006-1.368 4.045-4.992 7.092-1.51 2.587 2.957 1.81 6.247-1.916 9.466-14.244 12.302-40.414 12.448-56.27-.024-15.093-11.87-23.11-27.615-20.094-46.727 3.487-22.088 18.526-37.731 41.249-41.937 11.039-2.043 21.52-.263 31.27 5.431 5.66 3.305 7.155 6.67 5.625 12.875-.685 2.776-2.234 4.089-4.37 1.391-10.362-13.09-35.008-12.393-48.214-1.84m569.523 31.257c-8.374.293-16.365.677-24.336.426-4.535-.142-5.668 1.504-5.575 5.774.251 11.65.082 23.307.107 34.961.008 3.573-.347 6.851-4.99 7.098-4.17.222-6.417-2.026-6.424-7.014-.038-26.803-.068-53.608.126-80.41.06-8.397 1.87-9.84 10.147-9.849 8.324-.007 16.648-.002 24.972.027 1.494.005 3.015.003 4.476.269 3.595.652 5.732 2.937 5.574 6.558-.173 3.966-3.37 4.55-6.513 4.589-7.325.087-14.657.23-21.973-.017-4.059-.138-5.705 1.105-5.48 5.344.298 5.645.245 11.325.008 16.975-.16 3.821.993 5.38 5.073 5.223 6.98-.267 13.981-.041 20.973.054 2.43.033 4.713.69 5.77 3.174 1.071 2.514.933 4.886-1.935 6.818m135.33 13.547c.022-14.431.124-28.411.14-42.391.01-8.619-.049-8.613-8.561-8.594-2.998.006-5.996-.027-8.993-.038-3.354-.013-5.484-1.714-5.763-4.988-.273-3.2 1.482-5.406 4.625-6.233 1.265-.334 2.63-.399 3.95-.401 13.49-.026 26.98-.034 40.47.013 1.646.006 3.336.183 4.926.592 2.959.76 4.507 2.838 4.317 5.888-.196 3.167-2.255 4.83-5.246 4.982-4.32.22-8.68.43-12.978.08-4.838-.393-5.42 2.092-5.39 6.017.17 23.149.19 46.298.246 69.448.005 1.83.069 3.684-.196 5.482-.498 3.376-2.549 5.636-5.985 5.561-3.565-.077-5.268-2.553-5.306-6.026-.106-9.646-.146-19.293-.256-29.392"
  />
</svg>
